<?xml version="1.0" standalone="no"?>
<!DOCTYPE svg PUBLIC "-//W3C//DTD SVG 20010904//EN"
 "http://www.w3.org/TR/2001/REC-SVG-20010904/DTD/svg10.dtd">
<svg version="1.0" xmlns="http://www.w3.org/2000/svg"
 width="500.000000pt" height="500.000000pt" viewBox="0 0 500.000000 500.000000"
 preserveAspectRatio="xMidYMid meet">
<metadata>
Created by potrace 1.14, written by Peter Selinger 2001-2017
</metadata>
<g transform="translate(0.000000,500.000000) scale(0.100000,-0.100000)"
fill="#000000" stroke="none">
<path d="M2028 3875 c-2 -2 -24 -6 -49 -9 -115 -15 -297 -95 -365 -161 -6 -5
-26 -24 -45 -40 -106 -94 -189 -253 -207 -400 -5 -45 -8 -2104 -3 -2148 1 -9
1636 -4 1666 5 11 3 40 11 65 17 70 18 170 61 230 100 91 58 199 176 247 268
43 86 77 208 71 264 l-3 34 -250 0 -250 0 0 342 c-1 231 2 344 10 346 5 2 119
3 253 2 l242 -1 1 40 c0 57 0 1307 0 1327 -1 16 -66 17 -806 17 -442 0 -806
-2 -807 -3z"/>
</g>
</svg>
